HIERARCHY
ROOT Hips
{
  OFFSET -35.2597 29.1586 114.425
  CHANNELS 6 Xposition Yposition Zposition Zrotation Xrotation Yrotation
  JOINT LeftUpLeg
  {
    OFFSET 8.64259 1.95398 -2.38835
    CHANNELS 3 Zrotation Xrotation Yrotation
    JOINT LeftLeg
    {
      OFFSET 43.7702 0 0
      CHANNELS 3 Zrotation Xrotation Yrotation
      JOINT LeftFoot
      {
        OFFSET 40.6238 0 0
        CHANNELS 3 Zrotation Xrotation Yrotation
        JOINT LeftToeBase
        {
          OFFSET 12.7242 0 0
          CHANNELS 3 Zrotation Xrotation Yrotation
          End Site
          {
            OFFSET 0 0 0
          }
        }
      }
    }
  }
  JOINT RightUpLeg
  {
    OFFSET -8.2249 1.95398 -2.59336
    CHANNELS 3 Zrotation Xrotation Yrotation
    JOINT RightLeg
    {
      OFFSET 43.5653 0 0
      CHANNELS 3 Zrotation Xrotation Yrotation
      JOINT RightFoot
      {
        OFFSET 40.6238 0 0
        CHANNELS 3 Zrotation Xrotation Yrotation
        JOINT RightToeBase
        {
          OFFSET 12.7242 0 0
          CHANNELS 3 Zrotation Xrotation Yrotation
          End Site
          {
            OFFSET 0 0 0
          }
        }
      }
    }
  }
  JOINT Spine
  {
    OFFSET 0.165834 0.87714 6.61349
    CHANNELS 3 Zrotation Xrotation Yrotation
    JOINT Spine1
    {
      OFFSET 7.38963 1.71661e-005 0
      CHANNELS 3 Zrotation Xrotation Yrotation
      JOINT Spine2
      {
        OFFSET 11.9445 1.14441e-005 0
        CHANNELS 3 Zrotation Xrotation Yrotation
        JOINT Spine3
        {
          OFFSET 14.7254 4.19617e-005 0
          CHANNELS 3 Zrotation Xrotation Yrotation
          JOINT Spine4
          {
            OFFSET 10.9679 0 0
            CHANNELS 3 Zrotation Xrotation Yrotation
            JOINT RightShoulder
            {
              OFFSET 2.46616 -1.6653 3.69651
              CHANNELS 3 Zrotation Xrotation Yrotation
              JOINT RightArm
              {
                OFFSET 13.0012 0 0
                CHANNELS 3 Zrotation Xrotation Yrotation
                JOINT RightForeArm
                {
                  OFFSET 28.7848 1.62311e-005 0
                  CHANNELS 3 Zrotation Xrotation Yrotation
                  JOINT RightHand
                  {
                    OFFSET 26.5688 1.62095e-005 0
                    CHANNELS 3 Zrotation Xrotation Yrotation
                    End Site
                    {
                      OFFSET 0 0 0
                    }
                  }
                }
              }
            }
            JOINT LeftShoulder
            {
              OFFSET 2.38034 -1.29275 -3.7523
              CHANNELS 3 Zrotation Xrotation Yrotation
              JOINT LeftArm
              {
                OFFSET 16.3182 6.07031e-005 0
                CHANNELS 3 Zrotation Xrotation Yrotation
                JOINT LeftForeArm
                {
                  OFFSET 27.0901 0 0
                  CHANNELS 3 Zrotation Xrotation Yrotation
                  JOINT LeftHand
                  {
                    OFFSET 24.5451 1.51738e-005 0
                    CHANNELS 3 Zrotation Xrotation Yrotation
                    End Site
                    {
                      OFFSET 0 0 0
                    }
                  }
                }
              }
            }
            JOINT Neck
            {
              OFFSET 5.0226 -0.0266342 0
              CHANNELS 3 Zrotation Xrotation Yrotation
              JOINT Head
              {
                OFFSET 6.69364 2.86102e-005 0
                CHANNELS 3 Zrotation Xrotation Yrotation
                End Site
                {
                  OFFSET 0 0 0
                }
              }
            }
          }
        }
      }
    }
  }
}
MOTION
Frames:	14
Frame Time:	0.0416667
27.4261 99.0289 19.8086 18.3976 -70.6682 14.7297 -178.902 28.7121 86.8738 -14.2351 12.8258 -0.409897 66.3726 3.35995 -3.30114 15.2829 -12.4691 7.79287 176.857 24.8784 89.5852 -9.36355 -10.9255 0.0250575 66.0073 -3.67648 -6.15819 17.9428 3.31961 3.44724 0.408186 8.88069 -90.8658 9.11261 0.427071 -1.74489 -2.55947 0.349865 -1.76201 -25.0875 0.931677 -1.53596 -5.07486 0.931673 -1.53597 84.0661 -33.5233 -116.481 30.5122 9.18391 -33.1055 -5.93475 -49.9543 -5.85925 -21.9401 2.80133 -20.0356 -91.1135 -50.3242 77.1416 -40.8683 6.23178 -51.0882 5.28961 59.3842 -6.37778 -2.03932 -0.12192 -15.1439 10.3981 23.1604 8.04154 -4.82883 20.379 15.7409 
27.706 99.0609 19.842 21.1579 -70.9069 17.6111 -179.142 28.0295 86.6247 -13.8831 13.5986 -0.0709811 66.0939 2.85586 -3.34282 15.2529 -12.6855 8.06652 176.643 24.4502 89.4076 -9.76249 -10.025 0.117014 66.2323 -3.68694 -5.74734 18.2231 3.28785 3.2407 0.396522 8.9724 -90.9607 8.92833 0.362949 -1.92643 -2.744 0.277826 -1.94052 -25.2699 0.925057 -1.72839 -5.25726 0.925053 -1.72839 84.004 -33.1225 -116.792 30.5235 9.41896 -31.3941 -5.77454 -48.2537 -5.75228 -24.145 2.55551 -17.4541 -90.9665 -49.6542 77.2051 -39.4357 4.05214 -49.1951 5.23194 58.9774 -6.31982 -2.22588 -0.104382 -13.4671 8.45597 22.2909 5.42348 -5.24624 20.2064 15.0081 
27.9009 99.0908 19.9853 25.4979 -71.1247 22.0268 -179.285 27.2314 86.3621 -13.7969 14.6787 0.129907 66.0265 2.78428 -3.36551 15.0462 -12.6092 7.76493 176.476 23.6335 89.2337 -10.0444 -8.95548 0.105562 66.4682 -3.72181 -5.74959 18.4815 3.28198 2.99269 0.370902 8.93983 -91.0552 8.99202 0.26919 -2.10758 -2.68061 0.176181 -2.11739 -25.2041 0.890039 -1.92936 -5.19141 0.890041 -1.92937 83.9614 -33.2251 -116.819 29.782 10.438 -27.5927 -5.73345 -47.7793 -5.72435 -22.8573 2.63401 -18.5708 -91.0462 -50.7566 77.3407 -37.6825 1.66336 -47.2557 5.25111 59.1839 -6.34317 -3.21625 -0.0427044 -10.1291 6.44661 20.7266 2.91378 -4.86788 19.3649 13.5335 
28.0249 99.1861 20.2069 28.8498 -71.9073 25.6913 -179.139 26.1319 86.4974 -14.2136 15.8165 0.152465 66.1966 3.02398 -3.00375 14.9169 -12.9401 8.10156 176.428 22.0767 89.4698 -9.87342 -8.28465 0.0468586 66.3107 -3.58861 -5.30914 18.988 3.51925 1.87026 0.393526 8.93422 -91.1327 9.00262 0.279603 -2.26215 -2.67029 0.179798 -2.27227 -25.1919 0.946398 -2.0737 -5.17922 0.946402 -2.0737 83.9969 -33.8319 -116.456 29.6344 10.9053 -24.5374 -5.87032 -49.4064 -5.81891 -23.9253 2.28683 -16.2779 -90.8524 -51.1889 77.7242 -36.2155 -0.0858947 -46.0328 5.24107 59.0695 -6.32849 -3.80798 -0.0423711 -8.02715 5.35879 19.4973 0.963516 -4.41961 18.61 13.1545 
28.1934 99.2947 20.4872 34.4782 -72.2264 31.6535 -179.053 25.0545 86.5887 -14.6261 17.0454 0.16625 66.4179 3.47488 -3.18044 14.7132 -12.6546 7.51464 176.279 20.3381 89.5903 -9.46448 -6.92112 0.0703958 66.3005 -3.62466 -5.15233 19.2881 3.62727 1.28207 0.378089 8.89137 -91.2623 9.08645 0.19008 -2.51313 -2.58692 0.079334 -2.51906 -25.1047 0.936379 -2.33999 -5.09206 0.936388 -2.34001 84.531 -34.1834 -115.32 29.5735 11.1747 -22.5747 -5.90294 -49.731 -5.8423 -22.2348 2.22401 -16.8442 -90.7979 -51.6736 77.9118 -35.7783 -0.695836 -45.3091 5.20708 58.8192 -6.29565 -1.36486 -0.13533 -9.46346 4.43293 18.5336 0.358442 -4.22616 17.8499 11.8378 
28.2712 99.397 20.7956 43.3587 -72.4822 40.7749 -178.574 23.4498 86.7325 -15.268 19.7395 -0.260019 66.6466 4.12536 -2.81366 14.5791 -12.8902 7.71404 175.953 17.8093 89.6429 -8.9846 -5.04072 0.189555 66.459 -3.77711 -4.88438 19.4976 3.72424 0.811144 0.367136 8.87212 -91.371 9.12291 0.119213 -2.72366 -2.5509 -0.000728517 -2.72628 -25.0652 0.932005 -2.56213 -5.05253 0.932011 -2.56213 83.5416 -34.5425 -116.93 28.3107 12.2345 -19.4317 -5.93911 -50.1862 -5.86676 -21.2414 2.24615 -17.5476 -90.779 -51.344 77.8668 -36.631 0.135235 -45.4682 5.21908 58.8252 -6.30868 -1.38496 -0.145723 -10.5362 3.98486 17.4151 -0.643169 -3.72543 17.0309 9.32443 
28.422 99.385 21.1306 51.6921 -72.4625 49.2016 -178.381 22.1108 86.7522 -16.526 21.7061 -0.319443 67.203 4.84275 -2.58245 14.9116 -12.758 7.84399 175.365 15.8958 89.554 -9.68395 -3.68655 0.545278 67.3163 -4.29826 -5.11326 19.3554 3.65634 1.13635 0.333024 8.79838 -91.4293 9.26884 0.023189 -2.83342 -2.40518 -0.101469 -2.8317 -24.9173 0.873374 -2.69566 -4.90464 0.873372 -2.69567 83.1795 -35.2946 -117.207 28.3512 12.3262 -18.213 -5.90553 -49.7991 -5.84329 -21.7017 2.16074 -16.8159 -90.6858 -51.5051 78.0393 -38.3976 1.75183 -45.3912 5.15365 58.4131 -6.24077 0.347696 -0.261868 -11.5924 4.17476 15.5006 -2.95596 -3.90054 15.5439 8.73706 
28.5244 99.2969 21.5517 58.9473 -72.5191 56.827 -178.125 21.1021 87.1435 -18.7062 23.0615 -0.19902 68.3815 5.71667 -2.51839 14.8713 -12.6006 7.58787 175.132 13.9024 89.8717 -10.3813 -2.28997 0.715219 68.1039 -4.64996 -5.02482 19.7196 3.50389 1.12108 0.329096 8.6979 -91.5115 9.46801 -0.0241109 -2.99419 -2.20638 -0.155811 -2.99025 -24.7155 0.876503 -2.86323 -4.7029 0.876501 -2.86325 82.9067 -35.459 -117.608 28.2573 12.43 -17.6876 -5.99024 -50.7518 -5.90295 -20.7829 2.21468 -17.6413 -90.8602 -52.362 77.9719 -40.1947 3.32566 -45.079 5.36744 59.9178 -6.45619 0.251792 -0.283051 -12.7752 4.03562 13.9702 -4.26075 -4.01155 14.2771 7.9484 
28.7115 99.1964 22.0147 65.2102 -72.3315 63.6145 -177.894 20.2434 87.6748 -20.8536 24.3849 -0.0172354 69.4801 6.47528 -2.59087 15.072 -12.5617 7.72284 175.079 12.0858 90.3704 -10.9181 -1.22566 0.797613 68.6872 -4.96207 -5.30874 19.8371 3.41765 1.21017 0.302906 8.57941 -91.5673 9.70322 -0.104826 -3.10031 -1.9714 -0.241116 -3.09271 -24.4784 0.83137 -2.98869 -4.46572 0.83136 -2.98871 82.119 -37.3182 -118.073 27.1855 12.949 -18.2466 -5.89229 -49.612 -5.83533 -19.3295 2.50253 -20.3586 -90.768 -52.3042 78.0935 -42.0348 4.60859 -43.8984 5.21164 58.8358 -6.30012 -0.941074 -0.205183 -13.5314 4.17455 12.5895 -6.62078 -4.27638 13.3057 8.31287 
28.9282 99.1369 22.4705 70.0796 -72.6732 68.8316 -177.512 19.1158 88.1424 -22.2795 25.0814 -0.0069829 70.3309 7.19233 -2.17219 15.1748 -12.3996 7.59373 174.996 10.04 90.6852 -11.1236 -0.705752 0.89451 69.1751 -5.04382 -4.77794 20.4513 3.50685 0.297947 0.298003 8.49545 -91.6555 9.86954 -0.156901 -3.27112 -1.80548 -0.300638 -3.26107 -24.3091 0.832955 -3.16729 -4.29644 0.832964 -3.16729 81.7067 -37.6198 -118.632 27.5681 12.6745 -19.0343 -6.04909 -51.3389 -5.94642 -22.386 2.49566 -18.1209 -90.4837 -53.2307 78.7015 -42.3724 4.41066 -42.5359 4.80458 55.6066 -5.89042 -1.71893 -0.138687 -12.2552 4.17574 11.165 -7.21886 -4.42541 12.037 7.08528 
29.0906 99.0458 22.9709 72.3658 -72.6282 71.4809 -177.202 18.6502 88.6122 -23.3952 25.6822 -0.0361204 71.3251 7.86848 -2.20855 14.9438 -12.5283 7.55568 175.07 9.45176 91.0981 -11.6848 -0.171903 0.872209 69.6579 -5.37801 -5.03558 20.3236 3.38131 0.762171 0.310604 8.30827 -91.8235 10.2394 -0.213904 -3.60353 -1.43653 -0.372183 -3.59066 -23.9331 0.878311 -3.50151 -3.92046 0.878295 -3.50153 81.0759 -38.1186 -119.458 25.6847 13.7533 -18.1354 -6.22633 -53.0743 -6.07857 -23.3733 2.9963 -20.185 -90.2855 -54.1402 79.1747 -41.9887 3.42006 -40.7483 4.76463 55.2364 -5.84649 -0.366303 -0.210946 -10.2939 3.28121 10.0132 -7.73897 -4.09381 10.9934 6.10911 
29.4125 99.0327 23.4507 76.4709 -72.3301 75.5264 -177.09 17.4274 88.6148 -23.9577 26.2583 0.0183384 71.9023 8.2475 -2.33096 14.5523 -12.6802 7.39959 174.679 8.09949 90.8989 -12.1106 0.0980993 1.07742 70.0538 -5.46776 -4.76192 20.7383 3.40883 0.219154 0.277521 8.23893 -91.9724 10.3739 -0.350192 -3.88793 -1.3027 -0.520837 -3.8688 -23.7925 0.833599 -3.81373 -3.77988 0.833596 -3.81374 81.0823 -38.6373 -119.192 23.6931 14.855 -17.0811 -6.36055 -53.8898 -6.20247 -21.7803 2.9928 -21.1479 -89.8868 -53.5499 79.6272 -40.9383 1.95204 -39.0881 4.76135 55.2098 -5.84391 0.886909 -0.291831 -11.5016 2.91086 8.75551 -9.92253 -3.89238 10.0974 6.2913 
29.6761 98.9774 23.9228 78.7076 -71.7281 77.7318 -176.969 16.8725 88.6169 -24.5209 27.1495 -0.0124639 72.3959 8.66602 -2.06936 14.8065 -12.6065 7.53546 174.65 7.31541 90.8417 -12.3788 1.05954 0.976668 70.6816 -5.75469 -4.72986 20.4113 3.40609 0.600582 0.147956 8.08674 -92.0614 10.6709 -0.654304 -4.03853 -1.00601 -0.831274 -4.00591 -23.4913 0.588626 -4.04861 -3.47866 0.588625 -4.04861 79.3107 -39.6043 -121.65 21.034 16.2733 -13.3295 -6.19706 -52.5288 -6.07491 -23.6064 2.98622 -19.8328 -89.5401 -53.0376 80.0265 -39.4073 0.22922 -37.6401 5.16639 58.0028 -6.17986 -0.751825 -0.17976 -10.6754 2.628 7.97885 -12.4489 -3.84473 9.73999 5.64858 
29.7853 98.9894 24.6873 81.5226 -72.6413 80.7597 -176.557 15.5601 89.1758 -25.1228 26.5806 0.0186074 73.2397 9.12073 -2.6289 14.9816 -12.7462 7.8933 174.788 5.7808 91.2649 -12.4577 0.644536 0.855753 70.7305 -5.77968 -4.22801 21.0955 3.53933 -0.527891 0.169814 8.0383 -92.0944 10.7675 -0.627794 -4.10694 -0.909677 -0.807785 -4.07542 -23.3933 0.634428 -4.10593 -3.38071 0.634437 -4.10592 79.233 -40.1166 -121.516 19.6093 16.9499 -10.3232 -6.16633 -52.5758 -6.03034 -20.8548 2.71258 -20.3703 -89.0822 -52.6307 80.6124 -38.5832 -1.07841 -35.3668 5.19148 58.8402 -6.3012 -1.1029 -0.162944 -10.9029 2.87314 6.85325 -15.4256 -3.54398 9.18097 4.81601 
